<svg width="769" height="596" viewBox="0 0 769 596" fill="none" xmlns="http://www.w3.org/2000/svg">
<g clip-path="url(#clip0_8_259)">
<path d="M104.629 262.267C74.7753 250.262 50.8436 227.787 37.733 199.442C30.3977 183.385 26.8165 165.973 24.7775 148.557C22.777 131.47 22.3685 113.446 30.0496 97.9045C34.2551 89.395 40.6916 82.0736 48.7318 76.6539C56.772 71.2341 66.1416 67.9008 75.9276 66.9789C85.7136 66.0569 95.5822 67.5776 104.572 71.3929C113.561 75.2082 121.365 81.188 127.223 88.7494C132.264 95.2576 135.809 103.067 135.899 111.169C136.089 128.164 121.815 141.803 115.553 157.707C109.082 174.142 111.414 192.351 112.514 209.883C113.614 227.416 112.917 246.422 101.805 260.398" fill="#F2F2F2"/>
<path d="M640.051 477.166C671.578 470.096 699.09 451.757 716.955 425.903C726.985 411.242 733.55 394.646 738.594 377.799C743.543 361.271 747.086 343.565 742.22 327.014C739.556 317.953 734.485 309.706 727.502 303.078C720.519 296.451 711.861 291.668 702.373 289.196C692.884 286.725 682.889 286.648 673.361 288.975C663.833 291.301 655.096 295.951 648.004 302.472C641.899 308.084 637.043 315.217 635.542 323.192C632.394 339.919 644.093 355.646 647.496 372.327C651.014 389.564 645.541 407.147 641.402 424.257C637.263 441.368 634.64 460.22 643.161 475.774" fill="#F2F2F2"/>
<path d="M399.612 449.875C354.674 450.011 310.953 435.903 275.269 409.752C240.331 384.197 214.807 348.65 202.398 308.269L204.175 307.774C229.269 390.398 309.636 448.104 399.612 448.104C426.515 448.152 453.158 443.063 477.982 433.134L478.694 434.768C453.645 444.788 426.76 449.924 399.612 449.875Z" fill="#E6E6E6"/>
<path d="M593.874 195.046C567.18 113.343 489.113 58.4483 399.612 58.4483C373.091 58.4023 346.819 63.3477 322.291 73.0033L321.587 71.3654C354.399 58.5005 390.128 53.9754 425.305 58.2294C460.483 62.4834 493.914 75.372 522.354 95.644C556.966 120.469 582.593 155.043 595.64 194.517L593.874 195.046Z" fill="#E6E6E6"/>
<path d="M649.37 511.866C565.21 511.866 496.74 446.316 496.74 365.745C496.74 285.173 565.21 219.624 649.37 219.624C733.531 219.624 802 285.173 802 365.745C802 446.316 733.531 511.866 649.37 511.866ZM649.37 221.395C566.23 221.395 498.591 286.15 498.591 365.745C498.591 445.34 566.23 510.094 649.37 510.094C732.51 510.094 800.15 445.34 800.15 365.745C800.15 286.15 732.51 221.395 649.37 221.395Z" fill="#3F3D56"/>
<path d="M152.63 292.242C68.4693 292.242 0 226.692 0 146.121C0 65.5494 68.4693 0 152.63 0C236.79 0 305.26 65.5494 305.26 146.121C305.26 226.692 236.79 292.242 152.63 292.242ZM152.63 1.77116C69.4896 1.77116 1.85006 66.5262 1.85006 146.121C1.85006 225.715 69.4896 290.47 152.63 290.47C235.77 290.47 303.409 225.715 303.409 146.121C303.409 66.5262 235.77 1.77116 152.63 1.77116Z" fill="#3F3D56"/>
<path d="M140.762 146.942L127.284 172.003L140.593 179.307C140.593 179.307 149.722 151.157 149.991 150.089C151.368 149.55 152.541 148.624 153.356 147.433C154.171 146.242 154.589 144.842 154.555 143.419C154.521 141.996 154.036 140.616 153.165 139.462C152.294 138.308 151.077 137.434 149.676 136.957C148.275 136.479 146.756 136.42 145.319 136.787C143.882 137.154 142.596 137.93 141.629 139.012C140.663 140.095 140.063 141.432 139.908 142.848C139.753 144.264 140.051 145.692 140.762 146.942Z" fill="#A0616A"/>
<path d="M71.593 150.351C77.6052 171.676 99.2154 185.221 117.16 201.459C119.37 202.201 121.717 202.494 124.052 202.318C126.387 202.143 128.657 201.503 130.719 200.439C132.78 199.375 134.587 197.912 136.024 196.142C137.461 194.371 138.497 192.334 139.064 190.158L145.113 167.498L129.74 167.105L123.378 173.724L102.794 159.681L71.593 150.351Z" fill="#3F3D56"/>
<path d="M626.679 388.449C629.289 388.613 631.73 389.745 633.481 391.605C635.233 393.464 636.157 395.905 636.058 398.407C636.029 398.916 635.957 399.421 635.841 399.918L665.48 417.794L649.094 424.732L623.46 406.693C621.345 406.074 619.504 404.803 618.223 403.077C616.942 401.351 616.294 399.268 616.38 397.152C616.441 395.949 616.749 394.769 617.287 393.679C617.824 392.59 618.581 391.612 619.512 390.803C620.444 389.993 621.534 389.367 622.718 388.961C623.903 388.554 625.16 388.375 626.417 388.434C626.504 388.438 626.592 388.443 626.679 388.449Z" fill="#FFB6B6"/>
<path d="M655.261 409.669L647.915 424.179L676.96 442.072C679.026 443.356 681.402 444.113 683.86 444.271C686.318 444.429 688.777 443.982 691.005 442.973C693.712 441.732 695.925 439.683 697.31 437.133C698.695 434.583 699.177 431.672 698.682 428.837L689.258 377.328C688.625 373.723 686.574 370.488 683.526 368.287C680.477 366.086 676.664 365.087 672.87 365.496C669.138 365.886 665.721 367.68 663.37 370.483C661.02 373.286 659.929 376.868 660.337 380.441C660.353 380.581 660.371 380.72 660.391 380.859C660.463 381.354 660.562 381.845 660.688 382.33L670.977 418.962L655.261 409.669Z" fill="#6C63FF"/>
<path d="M628.864 415.552L617.926 388.533C617.553 387.609 617.578 386.58 617.996 385.673C618.415 384.766 619.191 384.055 620.157 383.696L626.307 381.413C627.273 381.056 628.348 381.08 629.295 381.481C630.243 381.881 630.985 382.625 631.361 383.549L642.298 410.567C642.671 411.492 642.646 412.521 642.228 413.428C641.81 414.335 641.033 415.046 640.068 415.405L633.917 417.687C632.951 418.044 631.876 418.02 630.929 417.62C629.982 417.22 629.239 416.476 628.864 415.552Z" fill="#3F3D56"/>
<path d="M621.434 384.807C620.914 385 620.495 385.383 620.27 385.872C620.045 386.361 620.031 386.915 620.232 387.414L631.17 414.432C631.372 414.93 631.772 415.331 632.283 415.546C632.793 415.762 633.372 415.775 633.893 415.583L640.044 413.301C640.564 413.107 640.982 412.724 641.208 412.235C641.433 411.746 641.447 411.192 641.246 410.694L630.308 383.675C630.106 383.177 629.706 382.777 629.195 382.561C628.685 382.345 628.106 382.332 627.585 382.525L621.434 384.807Z" fill="#6C63FF"/>
<path d="M653.197 471.929H694.733V432.163H653.197V471.929Z" fill="#FFB8B8"/>
<path d="M554.693 549.275L538.829 544.165L529.995 585.504L540.744 588.966L554.693 549.275Z" fill="#FFB6B6"/>
<path d="M582.825 541.41L566.538 545.098L581.855 584.662L592.892 582.163L582.825 541.41Z" fill="#FFB6B6"/>
<path d="M693.244 482.317C701.569 535.452 590.703 504.038 590.703 504.038L555.942 549.946L535.592 546.403C535.592 546.403 544.749 518.844 561.102 481.898C568.365 465.491 650.83 469.5 650.83 469.5L652.542 456.635L699.719 455.75L693.244 482.317Z" fill="#2F2E41"/>
<path d="M587.204 492.638L557.01 493.303C561.85 533.161 566.118 549.06 566.118 549.06L583.693 543.747L587.204 492.638Z" fill="#2F2E41"/>
<path d="M669.515 367.544L677.875 357.256L689.801 356.761L690.992 366.437L696.901 369.046C702.801 390.506 703.713 412.945 699.57 434.779C698.779 435.493 698.2 436.397 697.894 437.396C697.588 438.395 697.567 439.455 697.831 440.465L698.215 441.927L698.179 441.981C696.922 443.88 696.495 446.177 696.991 448.375L699.813 453.176C700.826 454.902 701.434 456.819 701.594 458.793C701.755 460.767 701.464 462.751 700.743 464.607C700.022 466.462 698.887 468.145 697.417 469.538C695.948 470.932 694.179 472.002 692.233 472.674C674.887 478.694 658.625 480.936 646.595 464.044L642.812 405.179L669.515 367.544Z" fill="#6C63FF"/>
<path d="M678.273 359.988C690.451 359.988 700.324 350.537 700.324 338.878C700.324 327.219 690.451 317.767 678.273 317.767C666.095 317.767 656.222 327.219 656.222 338.878C656.222 350.537 666.095 359.988 678.273 359.988Z" fill="#FFB8B8"/>
<path d="M689.343 313.43C698.679 313.601 706.084 321.892 705.882 331.948C712.792 338.85 710.507 347.295 704.734 356.326C694.173 357.5 691.708 357.989 682.446 361.605L681.226 356.146L678.461 363.255C676.107 364.294 673.771 365.434 671.453 366.676C669.787 359.36 670.2 352.25 674.678 346.056C678.655 340.554 668.975 334.021 662.052 334.945L662.154 329.891L660.415 334.915C657.716 336.813 654.731 336.126 651.67 334.754C646.706 310.055 685.137 303.301 689.343 313.43Z" fill="#2F2E41"/>
<path d="M545.63 595.958L538.563 595.074L538.173 588.528L534.07 594.512L515.325 592.168C514.426 592.056 513.589 591.672 512.935 591.071C512.281 590.471 511.844 589.686 511.689 588.832C511.533 587.977 511.667 587.097 512.071 586.321C512.475 585.544 513.128 584.911 513.934 584.515L530.254 576.49L531.135 570.031L546.757 572.9L545.63 595.958Z" fill="#2F2E41"/>
<path d="M596.947 592.232L589.878 593.103L587.757 586.868L585.384 593.656L566.635 595.966C565.736 596.077 564.824 595.91 564.031 595.489C563.239 595.068 562.607 594.416 562.23 593.628C561.852 592.839 561.747 591.956 561.931 591.106C562.115 590.257 562.577 589.486 563.251 588.906L576.893 577.161L576.025 570.702L591.895 569.661L596.947 592.232Z" fill="#2F2E41"/>
<path d="M629.338 393.388C631.948 393.552 634.389 394.684 636.14 396.544C637.892 398.403 638.816 400.844 638.717 403.346C638.688 403.855 638.616 404.36 638.5 404.857L668.139 422.733L651.753 429.671L626.119 411.632C624.004 411.013 622.163 409.742 620.882 408.016C619.601 406.29 618.953 404.206 619.039 402.091C619.1 400.887 619.408 399.707 619.946 398.618C620.483 397.529 621.24 396.551 622.172 395.742C623.103 394.932 624.193 394.306 625.378 393.9C626.562 393.493 627.819 393.314 629.076 393.372C629.163 393.377 629.251 393.382 629.338 393.388Z" fill="#FFB6B6"/>
<path d="M657.92 414.608L650.574 429.118L679.619 447.011C681.685 448.295 684.061 449.052 686.519 449.21C688.977 449.367 691.437 448.921 693.664 447.912C696.371 446.671 698.584 444.622 699.969 442.072C701.354 439.522 701.836 436.611 701.341 433.776L691.917 382.267C691.284 378.662 689.233 375.427 686.185 373.226C683.137 371.025 679.323 370.026 675.529 370.435C673.681 370.628 671.891 371.168 670.261 372.024C668.631 372.88 667.193 374.034 666.029 375.422C664.866 376.81 663.999 378.403 663.478 380.112C662.958 381.821 662.794 383.61 662.996 385.38C663.012 385.519 663.03 385.659 663.051 385.798C663.122 386.293 663.221 386.784 663.347 387.269L673.636 423.901L657.92 414.608Z" fill="#6C63FF"/>
<path d="M102.137 411.809L111.454 415.832L132.099 383.344L118.348 377.405L102.137 411.809Z" fill="#A0616A"/>
<path d="M97.424 420.971L126.074 433.345L126.237 432.998C127.571 430.167 127.676 426.944 126.528 424.039C125.381 421.134 123.074 418.784 120.117 417.506L116.675 411.445L105.119 411.029L102.618 409.949L97.424 420.971Z" fill="#2F2E41"/>
<path d="M217.529 367.627L227.368 364.982L221.396 327.386L206.873 331.29L217.529 367.627Z" fill="#A0616A"/>
<path d="M220.064 377.548L250.324 369.415L250.217 369.049C249.34 366.058 247.258 363.524 244.429 362.003C241.6 360.482 238.256 360.099 235.132 360.938L228.427 358.409L219.291 365.195L216.65 365.905L220.064 377.548Z" fill="#2F2E41"/>
<path d="M68.5986 257.772C68.8503 264.741 84.3332 283.545 92.4761 286.241C93.8602 286.7 94.6691 286.952 94.6691 286.952L97.5032 286.132L131.824 276.191C137.834 279.575 155.762 281.296 170.472 282.157C182.18 282.839 188.706 288.699 188.706 288.699C192.16 313.848 202.118 332.182 213.601 354.715L227.382 352.421L214.363 268.487C214.082 266.674 213.25 264.981 211.972 263.617C210.694 262.253 209.026 261.278 207.174 260.815L113.519 237.362C113.519 237.362 108.354 236.467 97.4613 241.498C79.5277 249.781 68.4189 252.701 68.5986 257.772Z" fill="#2F2E41"/>
<path d="M86.4943 256.423C83.3534 262.715 88.0079 286.24 93.9279 292.234L95.4993 293.257L96.0307 293.522C99.582 305.022 137.691 338.657 137.691 338.657C124.819 354.357 113.347 373.51 108.228 394.969L123.113 400.176L165.012 340.294C166.109 338.726 166.685 336.876 166.663 334.989C166.642 333.101 166.024 331.264 164.891 329.719L147.798 306.409L119.946 254.759C100.043 254.172 88.7825 251.847 86.4943 256.423Z" fill="#2F2E41"/>
<path d="M69.1587 260.512C69.1126 260.512 68.0216 257.778 67.9995 257.771C67.6285 257.672 62.6068 257.198 63.7361 249.239L65.181 240.479L63.7705 232.744L61.3978 230.473L65.2111 226.822L62.8741 210.266L61.9769 177.116C59.7251 165.729 60.3132 155.315 71.2218 150.3L83.7279 139.195L97.9586 139.03L114.104 148.193L121.926 163.122L124.96 203.583L127.225 208.643L127.031 208.811C127.016 208.824 125.507 210.131 124.829 210.849C124.501 211.296 125.117 214.63 125.878 217.462L126.853 224.45L124.395 226.133L127.591 229.748L136.306 243.85L135.784 243.726C135.196 243.586 129.715 251.462 69.5614 260.219C69.2838 260.26 69.2741 260.512 69.1587 260.512Z" fill="#3F3D56"/>
<path d="M138.039 172.947L133.059 170.459C132.278 170.068 131.691 169.396 131.426 168.591C131.162 167.785 131.242 166.912 131.649 166.164L143.572 144.289C143.98 143.541 144.682 142.979 145.524 142.726C146.365 142.473 147.277 142.55 148.059 142.939L153.039 145.427C153.82 145.818 154.407 146.49 154.671 147.296C154.936 148.101 154.856 148.974 154.449 149.723L142.526 171.597C142.117 172.345 141.415 172.907 140.574 173.16C139.733 173.413 138.821 173.337 138.039 172.947Z" fill="#3F3D56"/>
<path d="M146.868 143.764C146.446 143.554 145.955 143.513 145.502 143.649C145.049 143.785 144.67 144.088 144.45 144.491L132.527 166.366C132.308 166.769 132.265 167.24 132.407 167.674C132.55 168.108 132.866 168.47 133.287 168.681L138.267 171.168C138.688 171.378 139.18 171.42 139.633 171.283C140.086 171.147 140.465 170.844 140.685 170.441L152.608 148.566C152.827 148.163 152.87 147.693 152.728 147.259C152.585 146.825 152.269 146.462 151.848 146.252L146.868 143.764Z" fill="#6C63FF"/>
<path d="M94.0498 136.044C105.287 136.044 114.397 127.323 114.397 116.565C114.397 105.807 105.287 97.0857 94.0498 97.0857C82.8126 97.0857 73.7031 105.807 73.7031 116.565C73.7031 127.323 82.8126 136.044 94.0498 136.044Z" fill="#A0616A"/>
<path d="M84.0426 129.111C83.1506 128.432 82.0378 128.074 80.8984 128.1C80.5449 128.156 80.2078 128.282 79.9094 128.472C79.6109 128.662 79.358 128.91 79.1673 129.2C79.0613 129.328 78.9237 129.428 78.7671 129.492C78.6104 129.556 78.4395 129.581 78.27 129.566C76.0989 129.642 71.4714 125.786 71.155 118.346C71.0046 114.81 68.7948 108.827 72.3127 105.587C72.5485 104.279 75.2954 90.7627 87.6778 90.3902C100.355 90.0045 108.794 92.4424 110.821 97.0679C112.229 100.74 113.299 104.523 114.02 108.374L114.445 110.663L113.452 108.541C113.433 108.501 111.621 104.702 108.262 103.435C108.207 104.053 108.043 104.658 107.776 105.223C106.68 107.498 103.916 108.982 100.736 109.005C98.5382 108.94 96.371 108.494 94.3397 107.688C94.5697 108.006 94.6988 108.381 94.7115 108.767C94.7242 109.153 94.6199 109.535 94.4111 109.866C94.2023 110.197 93.8981 110.463 93.535 110.632C93.1718 110.801 92.7654 110.866 92.3646 110.819L91.7765 110.749C91.5912 110.727 91.4037 110.768 91.2464 110.864C91.0892 110.961 90.9721 111.107 90.9156 111.277C90.859 111.447 90.8666 111.631 90.9369 111.797C91.0072 111.963 91.1358 112.099 91.3005 112.184L91.8183 112.449L91.1899 112.74C88.6604 113.82 86.5761 115.672 85.263 118.007C83.9499 120.342 83.482 123.027 83.9324 125.644L84.665 129.589L84.0426 129.111Z" fill="#2F2E41"/>
<path d="M406.189 430.108C405.633 430.132 405.082 429.993 404.612 429.707C404.141 429.422 403.773 429.005 403.558 428.513C403.343 428.021 403.292 427.478 403.41 426.957C403.529 426.436 403.812 425.962 404.221 425.6L404.407 424.892C404.382 424.835 404.358 424.778 404.333 424.722C403.772 423.454 402.833 422.373 401.633 421.615C400.433 420.857 399.025 420.455 397.588 420.46C396.15 420.465 394.746 420.877 393.551 421.644C392.357 422.411 391.426 423.498 390.876 424.77C388.675 429.844 385.872 434.928 385.182 440.294C384.879 442.666 385.007 445.07 385.561 447.4C380.392 436.604 377.707 424.871 377.69 412.995C377.689 410.014 377.862 407.037 378.208 404.075C378.494 401.647 378.891 399.236 379.399 396.843C382.17 383.857 388.119 371.685 396.757 361.327C400.938 359.143 404.319 355.785 406.445 351.704C407.215 350.238 407.76 348.672 408.061 347.056C407.59 347.115 407.11 347.152 406.639 347.182C406.492 347.189 406.337 347.196 406.19 347.204L406.135 347.206C405.616 347.229 405.102 347.107 404.655 346.856C404.207 346.605 403.844 346.236 403.611 345.792C403.377 345.348 403.282 344.85 403.338 344.356C403.394 343.862 403.597 343.394 403.924 343.008C404.128 342.768 404.332 342.529 404.535 342.289C404.845 341.919 405.162 341.556 405.471 341.186C405.507 341.151 405.54 341.114 405.572 341.075C405.927 340.653 406.283 340.238 406.639 339.816C405.989 338.852 405.116 338.044 404.087 337.455C400.523 335.457 395.605 336.841 393.03 339.927C390.448 343.014 389.961 347.344 390.858 351.201C391.74 354.483 393.199 357.596 395.172 360.409C394.979 360.646 394.778 360.876 394.585 361.113C391.051 365.462 387.971 370.133 385.389 375.058C386.017 369.541 385.268 363.96 383.203 358.773C381.11 353.94 377.188 349.87 373.733 345.691C369.584 340.672 361.076 342.863 360.345 349.225C360.338 349.287 360.331 349.348 360.324 349.41C360.837 349.687 361.34 349.981 361.831 350.292C362.448 350.687 362.927 351.251 363.203 351.911C363.48 352.57 363.542 353.294 363.382 353.988C363.221 354.682 362.845 355.314 362.303 355.8C361.762 356.286 361.079 356.604 360.345 356.712L360.27 356.723C360.453 358.493 360.776 360.248 361.237 361.971C362.571 366.782 364.93 371.278 368.164 375.176C371.399 379.073 375.439 382.289 380.033 384.622C380.335 384.77 380.628 384.918 380.93 385.059C378.336 392.096 376.709 399.426 376.09 406.865C375.739 411.254 375.76 415.663 376.152 420.049L376.128 419.893C375.139 415.017 372.421 410.616 368.435 407.435C362.515 402.779 354.15 401.065 347.763 397.322C347.084 396.905 346.295 396.682 345.489 396.681C344.682 396.679 343.892 396.898 343.211 397.312C342.53 397.726 341.987 398.318 341.646 399.017C341.304 399.717 341.18 400.496 341.285 401.261C341.294 401.316 341.303 401.37 341.312 401.425C342.264 401.796 343.191 402.224 344.087 402.705C344.6 402.983 345.103 403.277 345.594 403.588C346.211 403.983 346.69 404.547 346.966 405.206C347.243 405.866 347.305 406.59 347.145 407.284C346.984 407.978 346.608 408.609 346.066 409.095C345.525 409.581 344.842 409.899 344.108 410.008L344.033 410.019C343.979 410.026 343.933 410.034 343.879 410.041C345.505 413.76 347.789 417.183 350.629 420.16C354.137 423.764 358.377 426.643 363.089 428.623C367.801 430.602 372.885 431.639 378.03 431.67H378.038C379.435 437.481 381.459 443.137 384.077 448.547H405.649C405.726 448.318 405.796 448.081 405.865 447.851C403.869 447.972 401.864 447.857 399.896 447.511C401.497 445.631 403.097 443.736 404.698 441.856C404.734 441.82 404.767 441.783 404.798 441.745C405.61 440.782 406.43 439.827 407.242 438.865L407.242 438.864C407.285 435.914 406.931 432.971 406.189 430.108Z" fill="#E6E6E6"/>
<path d="M509.884 109.872C510.3 110.226 510.593 110.694 510.722 111.213C510.851 111.732 510.81 112.276 510.605 112.772C510.401 113.268 510.041 113.691 509.577 113.985C509.112 114.279 508.564 114.429 508.007 114.415L507.357 114.798C507.334 114.855 507.31 114.912 507.286 114.97C506.764 116.252 506.648 117.653 506.955 118.998C507.262 120.343 507.977 121.571 509.01 122.528C510.044 123.485 511.349 124.129 512.763 124.378C514.178 124.627 515.637 124.47 516.958 123.927C522.234 121.764 527.947 119.996 532.354 116.614C534.3 115.118 535.961 113.311 537.263 111.272C533.094 122.457 526.462 132.654 517.816 141.17C515.644 143.305 513.35 145.322 510.942 147.212C508.967 148.759 506.926 150.22 504.817 151.595C493.365 159.043 480.231 163.785 466.494 165.43C461.907 164.201 457.037 164.346 452.54 165.848C450.919 166.384 449.388 167.141 447.994 168.097C448.375 168.37 448.745 168.664 449.104 168.958C449.215 169.051 449.331 169.149 449.442 169.241L449.483 169.277C449.871 169.607 450.15 170.038 450.288 170.517C450.426 170.996 450.416 171.502 450.26 171.976C450.103 172.45 449.808 172.87 449.408 173.187C449.008 173.503 448.521 173.702 448.006 173.76C447.685 173.796 447.364 173.832 447.043 173.867C446.552 173.925 446.06 173.973 445.569 174.032C445.518 174.033 445.467 174.037 445.416 174.044C444.854 174.109 444.297 174.168 443.735 174.232C443.496 175.357 443.532 176.519 443.84 177.628C444.936 181.441 449.467 183.736 453.561 183.246C457.661 182.761 461.167 179.985 463.336 176.624C465.097 173.685 466.322 170.48 466.959 167.147C467.271 167.106 467.582 167.076 467.893 167.036C473.595 166.282 479.206 164.995 484.645 163.193C480.173 166.725 476.641 171.222 474.338 176.316C472.313 181.176 472.155 186.712 471.582 192.012C470.895 198.379 478.584 202.495 483.746 198.428C483.796 198.388 483.846 198.349 483.896 198.309C483.73 197.768 483.585 197.222 483.46 196.671C483.306 195.975 483.375 195.252 483.657 194.594C483.94 193.937 484.424 193.377 485.045 192.987C485.666 192.598 486.395 192.397 487.137 192.411C487.88 192.425 488.6 192.653 489.205 193.066L489.266 193.108C490.426 191.718 491.474 190.246 492.401 188.704C494.952 184.367 496.541 179.571 497.066 174.619C497.592 169.666 497.043 164.663 495.454 159.923C495.346 159.616 495.243 159.313 495.13 159.011C502.118 155.705 508.627 151.542 514.494 146.629C517.945 143.72 521.144 140.549 524.061 137.146L523.964 137.273C521.118 141.427 519.856 146.394 520.391 151.335C521.237 158.626 525.977 165.443 527.822 172.391C528.004 173.143 528.407 173.83 528.983 174.37C529.56 174.911 530.285 175.282 531.075 175.44C531.864 175.599 532.685 175.538 533.439 175.265C534.194 174.991 534.851 174.517 535.333 173.898C535.367 173.853 535.4 173.809 535.433 173.764C535.022 172.862 534.67 171.936 534.379 170.992C534.214 170.451 534.069 169.904 533.944 169.353C533.789 168.658 533.858 167.934 534.141 167.277C534.424 166.62 534.907 166.06 535.528 165.67C536.149 165.28 536.878 165.079 537.621 165.093C538.363 165.107 539.084 165.336 539.688 165.748L539.75 165.791C539.794 165.822 539.833 165.847 539.877 165.878C541.423 162.128 542.283 158.151 542.42 154.121C542.535 149.197 541.598 144.301 539.667 139.735C537.736 135.169 534.85 131.029 531.188 127.569L531.183 127.563C534.419 122.469 537.093 117.066 539.163 111.442L523.714 97.0278C523.491 97.1404 523.269 97.2636 523.052 97.3814C524.569 98.6296 525.922 100.051 527.078 101.614C524.561 101.891 522.034 102.178 519.517 102.455C519.466 102.457 519.414 102.461 519.364 102.468C518.081 102.614 516.798 102.75 515.515 102.897L515.514 102.898C513.332 104.981 511.44 107.326 509.884 109.872Z" fill="#E6E6E6"/>
<path d="M137.98 167.679L118.527 188.838L129.574 199.027C129.574 199.027 145.596 173.857 146.129 172.884C147.601 172.683 148.975 172.059 150.069 171.094C151.162 170.129 151.924 168.869 152.254 167.481C152.583 166.093 152.464 164.641 151.913 163.319C151.362 161.996 150.405 160.865 149.168 160.075C147.931 159.285 146.472 158.873 144.985 158.893C143.498 158.914 142.053 159.366 140.84 160.191C139.628 161.015 138.705 162.172 138.194 163.509C137.684 164.846 137.609 166.3 137.98 167.679Z" fill="#A0616A"/>
<path d="M70.0295 154.842C70.4302 176.927 87.9394 195.106 101.208 215.042C103.162 216.278 105.364 217.11 107.673 217.484C109.982 217.859 112.347 217.768 114.617 217.218C116.887 216.667 119.013 215.67 120.857 214.288C122.701 212.907 124.225 211.172 125.329 209.195L136.965 188.63L122.156 184.661L114.301 189.595L97.9131 171.172L70.0295 154.842Z" fill="#3F3D56"/>
</g>
<defs>
<clipPath id="clip0_8_259">
<rect width="802" height="596" fill="white"/>
</clipPath>
</defs>
</svg>
