<svg width="87" height="47" viewBox="0 0 87 47" fill="none" xmlns="http://www.w3.org/2000/svg">
<mask id="path-1-outside-1_2_11" maskUnits="userSpaceOnUse" x="50" y="16" width="37" height="27" fill="black">
<rect fill="white" x="50" y="16" width="37" height="27"/>
<path d="M59.5455 35.3636C57.9697 35.3636 56.5871 34.9886 55.3977 34.2386C54.2159 33.4886 53.2917 32.4394 52.625 31.0909C51.9659 29.7424 51.6364 28.1667 51.6364 26.3636C51.6364 24.5455 51.9659 22.9583 52.625 21.6023C53.2917 20.2462 54.2159 19.1932 55.3977 18.4432C56.5871 17.6932 57.9697 17.3182 59.5455 17.3182C61.1212 17.3182 62.5 17.6932 63.6818 18.4432C64.8712 19.1932 65.7955 20.2462 66.4545 21.6023C67.1212 22.9583 67.4545 24.5455 67.4545 26.3636C67.4545 28.1667 67.1212 29.7424 66.4545 31.0909C65.7955 32.4394 64.8712 33.4886 63.6818 34.2386C62.5 34.9886 61.1212 35.3636 59.5455 35.3636ZM59.5455 32.9545C60.7424 32.9545 61.7273 32.6477 62.5 32.0341C63.2727 31.4205 63.8447 30.6136 64.2159 29.6136C64.5871 28.6136 64.7727 27.5303 64.7727 26.3636C64.7727 25.197 64.5871 24.1098 64.2159 23.1023C63.8447 22.0947 63.2727 21.2803 62.5 20.6591C61.7273 20.0379 60.7424 19.7273 59.5455 19.7273C58.3485 19.7273 57.3636 20.0379 56.5909 20.6591C55.8182 21.2803 55.2462 22.0947 54.875 23.1023C54.5038 24.1098 54.3182 25.197 54.3182 26.3636C54.3182 27.5303 54.5038 28.6136 54.875 29.6136C55.2462 30.6136 55.8182 31.4205 56.5909 32.0341C57.3636 32.6477 58.3485 32.9545 59.5455 32.9545ZM72.6506 41.5455C72.196 41.5455 71.7907 41.5076 71.4347 41.4318C71.0786 41.3636 70.8324 41.2955 70.696 41.2273L71.3778 38.8636C72.0294 39.0303 72.6051 39.0909 73.1051 39.0455C73.6051 39 74.0483 38.7765 74.4347 38.375C74.8286 37.9811 75.1884 37.3409 75.5142 36.4545L76.0142 35.0909L69.5597 17.5455H72.4688L77.2869 31.4545H77.4688L82.2869 17.5455H85.196L77.7869 37.5455C77.4536 38.447 77.0407 39.1932 76.5483 39.7841C76.0559 40.3826 75.4839 40.8258 74.8324 41.1136C74.1884 41.4015 73.4612 41.5455 72.6506 41.5455Z"/>
</mask>
<path d="M59.5455 35.3636C57.9697 35.3636 56.5871 34.9886 55.3977 34.2386C54.2159 33.4886 53.2917 32.4394 52.625 31.0909C51.9659 29.7424 51.6364 28.1667 51.6364 26.3636C51.6364 24.5455 51.9659 22.9583 52.625 21.6023C53.2917 20.2462 54.2159 19.1932 55.3977 18.4432C56.5871 17.6932 57.9697 17.3182 59.5455 17.3182C61.1212 17.3182 62.5 17.6932 63.6818 18.4432C64.8712 19.1932 65.7955 20.2462 66.4545 21.6023C67.1212 22.9583 67.4545 24.5455 67.4545 26.3636C67.4545 28.1667 67.1212 29.7424 66.4545 31.0909C65.7955 32.4394 64.8712 33.4886 63.6818 34.2386C62.5 34.9886 61.1212 35.3636 59.5455 35.3636ZM59.5455 32.9545C60.7424 32.9545 61.7273 32.6477 62.5 32.0341C63.2727 31.4205 63.8447 30.6136 64.2159 29.6136C64.5871 28.6136 64.7727 27.5303 64.7727 26.3636C64.7727 25.197 64.5871 24.1098 64.2159 23.1023C63.8447 22.0947 63.2727 21.2803 62.5 20.6591C61.7273 20.0379 60.7424 19.7273 59.5455 19.7273C58.3485 19.7273 57.3636 20.0379 56.5909 20.6591C55.8182 21.2803 55.2462 22.0947 54.875 23.1023C54.5038 24.1098 54.3182 25.197 54.3182 26.3636C54.3182 27.5303 54.5038 28.6136 54.875 29.6136C55.2462 30.6136 55.8182 31.4205 56.5909 32.0341C57.3636 32.6477 58.3485 32.9545 59.5455 32.9545ZM72.6506 41.5455C72.196 41.5455 71.7907 41.5076 71.4347 41.4318C71.0786 41.3636 70.8324 41.2955 70.696 41.2273L71.3778 38.8636C72.0294 39.0303 72.6051 39.0909 73.1051 39.0455C73.6051 39 74.0483 38.7765 74.4347 38.375C74.8286 37.9811 75.1884 37.3409 75.5142 36.4545L76.0142 35.0909L69.5597 17.5455H72.4688L77.2869 31.4545H77.4688L82.2869 17.5455H85.196L77.7869 37.5455C77.4536 38.447 77.0407 39.1932 76.5483 39.7841C76.0559 40.3826 75.4839 40.8258 74.8324 41.1136C74.1884 41.4015 73.4612 41.5455 72.6506 41.5455Z" fill="#673AB7"/>
<path d="M55.3977 34.2386L54.8619 35.083L54.8643 35.0845L55.3977 34.2386ZM52.625 31.0909L51.7266 31.53L51.7286 31.5341L52.625 31.0909ZM52.625 21.6023L51.7276 21.1611L51.7256 21.1651L52.625 21.6023ZM55.3977 18.4432L54.8643 17.5973L54.8619 17.5989L55.3977 18.4432ZM63.6818 18.4432L63.146 19.2875L63.1484 19.2891L63.6818 18.4432ZM66.4545 21.6023L65.5551 22.0394L65.5571 22.0435L66.4545 21.6023ZM66.4545 31.0909L65.5581 30.6477L65.5561 30.6518L66.4545 31.0909ZM63.6818 34.2386L63.1484 33.3928L63.146 33.3943L63.6818 34.2386ZM62.5 32.0341L61.8781 31.251L62.5 32.0341ZM64.2159 29.6136L65.1534 29.9616V29.9616L64.2159 29.6136ZM64.2159 23.1023L65.1543 22.7566L64.2159 23.1023ZM62.5 20.6591L63.1266 19.8797L63.1266 19.8797L62.5 20.6591ZM56.5909 20.6591L55.9644 19.8797L55.9644 19.8797L56.5909 20.6591ZM54.875 23.1023L53.9367 22.7566H53.9367L54.875 23.1023ZM54.875 29.6136L53.9375 29.9616V29.9616L54.875 29.6136ZM56.5909 32.0341L57.2128 31.251H57.2128L56.5909 32.0341ZM59.5455 34.3636C58.135 34.3636 56.9421 34.0303 55.9311 33.3928L54.8643 35.0845C56.2322 35.947 57.8044 36.3636 59.5455 36.3636V34.3636ZM55.9336 33.3943C54.918 32.7498 54.1132 31.8447 53.5214 30.6477L51.7286 31.5341C52.4701 33.0341 53.5138 34.2275 54.8619 35.083L55.9336 33.3943ZM53.5234 30.6518C52.9433 29.4649 52.6364 28.0447 52.6364 26.3636H50.6364C50.6364 28.2886 50.9885 30.02 51.7266 31.53L53.5234 30.6518ZM52.6364 26.3636C52.6364 24.6661 52.9438 23.2341 53.5244 22.0394L51.7256 21.1651C50.9881 22.6826 50.6364 24.4248 50.6364 26.3636H52.6364ZM53.5224 22.0435C54.1146 20.8388 54.9194 19.9311 55.9336 19.2875L54.8619 17.5989C53.5124 18.4553 52.4687 19.6536 51.7276 21.1611L53.5224 22.0435ZM55.9311 19.2891C56.9421 18.6516 58.135 18.3182 59.5455 18.3182V16.3182C57.8044 16.3182 56.2322 16.7348 54.8643 17.5973L55.9311 19.2891ZM59.5455 18.3182C60.956 18.3182 62.1439 18.6516 63.146 19.2875L64.2176 17.5989C62.8561 16.7348 61.2864 16.3182 59.5455 16.3182V18.3182ZM63.1484 19.2891C64.1686 19.9324 64.9714 20.8384 65.5552 22.0394L67.3539 21.1651C66.6195 19.654 65.5738 18.454 64.2152 17.5973L63.1484 19.2891ZM65.5571 22.0435C66.144 23.2371 66.4545 24.6677 66.4545 26.3636H68.4545C68.4545 24.4232 68.0985 22.6796 67.352 21.1611L65.5571 22.0435ZM66.4545 26.3636C66.4545 28.0431 66.1444 29.4618 65.5581 30.6477L67.351 31.5341C68.098 30.0231 68.4545 28.2902 68.4545 26.3636H66.4545ZM65.5561 30.6518C64.9728 31.8451 64.1701 32.7486 63.1484 33.3928L64.2152 35.0845C65.5724 34.2287 66.6181 33.0336 67.353 31.53L65.5561 30.6518ZM63.146 33.3943C62.1439 34.0302 60.956 34.3636 59.5455 34.3636V36.3636C61.2864 36.3636 62.8561 35.9471 64.2176 35.083L63.146 33.3943ZM59.5455 33.9545C60.9186 33.9545 62.137 33.5993 63.1219 32.8172L61.8781 31.251C61.3176 31.6961 60.5663 31.9545 59.5455 31.9545V33.9545ZM63.1219 32.8172C64.0491 32.0809 64.724 31.1184 65.1534 29.9616L63.2784 29.2656C62.9654 30.1089 62.4964 30.76 61.8781 31.251L63.1219 32.8172ZM65.1534 29.9616C65.5697 28.8403 65.7727 27.638 65.7727 26.3636H63.7727C63.7727 27.4226 63.6046 28.387 63.2784 29.2656L65.1534 29.9616ZM65.7727 26.3636C65.7727 25.0892 65.5696 23.884 65.1543 22.7566L63.2776 23.448C63.6046 24.3357 63.7727 25.3047 63.7727 26.3636H65.7727ZM65.1543 22.7566C64.7257 21.5935 64.0523 20.6239 63.1266 19.8797L61.8734 21.4385C62.4932 21.9367 62.9637 22.5959 63.2776 23.448L65.1543 22.7566ZM63.1266 19.8797C62.1415 19.0878 60.9214 18.7273 59.5455 18.7273V20.7273C60.5634 20.7273 61.313 20.9879 61.8734 21.4385L63.1266 19.8797ZM59.5455 18.7273C58.1695 18.7273 56.9494 19.0878 55.9644 19.8797L57.2175 21.4385C57.7779 20.9879 58.5275 20.7273 59.5455 20.7273V18.7273ZM55.9644 19.8797C55.0386 20.6239 54.3652 21.5935 53.9367 22.7566L55.8133 23.448C56.1273 22.5959 56.5977 21.9367 57.2175 21.4385L55.9644 19.8797ZM53.9367 22.7566C53.5213 23.884 53.3182 25.0892 53.3182 26.3636H55.3182C55.3182 25.3047 55.4863 24.3357 55.8133 23.448L53.9367 22.7566ZM53.3182 26.3636C53.3182 27.638 53.5212 28.8403 53.9375 29.9616L55.8125 29.2656C55.4863 28.387 55.3182 27.4226 55.3182 26.3636H53.3182ZM53.9375 29.9616C54.3669 31.1184 55.0418 32.0809 55.969 32.8172L57.2128 31.251C56.5946 30.76 56.1255 30.1089 55.8125 29.2656L53.9375 29.9616ZM55.969 32.8172C56.9539 33.5993 58.1723 33.9545 59.5455 33.9545V31.9545C58.5247 31.9545 57.7733 31.6961 57.2128 31.251L55.969 32.8172ZM71.4347 41.4318L71.6428 40.4537L71.6328 40.4516L71.6227 40.4497L71.4347 41.4318ZM70.696 41.2273L69.7352 40.9501L69.5046 41.7496L70.2488 42.1217L70.696 41.2273ZM71.3778 38.8636L71.6257 37.8948L70.6859 37.6544L70.417 38.5865L71.3778 38.8636ZM73.1051 39.0455L73.0146 38.0496L73.1051 39.0455ZM74.4347 38.375L73.7276 37.6679L73.7208 37.6747L73.7141 37.6816L74.4347 38.375ZM75.5142 36.4545L76.4528 36.7995L76.4531 36.7988L75.5142 36.4545ZM76.0142 35.0909L76.9531 35.4352L77.0795 35.0903L76.9527 34.7457L76.0142 35.0909ZM69.5597 17.5455V16.5455H68.1263L68.6212 17.8907L69.5597 17.5455ZM72.4688 17.5455L73.4137 17.2181L73.1806 16.5455H72.4688V17.5455ZM77.2869 31.4545L76.342 31.7819L76.575 32.4545H77.2869V31.4545ZM77.4688 31.4545V32.4545H78.1806L78.4137 31.7819L77.4688 31.4545ZM82.2869 17.5455V16.5455H81.575L81.342 17.2181L82.2869 17.5455ZM85.196 17.5455L86.1337 17.8928L86.6329 16.5455H85.196V17.5455ZM77.7869 37.5455L76.8492 37.1981L76.849 37.1987L77.7869 37.5455ZM76.5483 39.7841L75.7801 39.1439L75.7761 39.1487L76.5483 39.7841ZM74.8324 41.1136L74.4282 40.1989L74.4243 40.2007L74.8324 41.1136ZM72.6506 40.5455C72.2495 40.5455 71.916 40.5118 71.6428 40.4537L71.2266 42.4099C71.6654 42.5033 72.1425 42.5455 72.6506 42.5455V40.5455ZM71.6227 40.4497C71.4612 40.4187 71.3387 40.3904 71.2498 40.3658C71.1533 40.3391 71.128 40.3252 71.1432 40.3328L70.2488 42.1217C70.521 42.2578 70.89 42.3457 71.2466 42.414L71.6227 40.4497ZM71.6568 41.5044L72.3387 39.1408L70.417 38.5865L69.7352 40.9501L71.6568 41.5044ZM71.13 39.8324C71.8568 40.0184 72.5509 40.1 73.1957 40.0413L73.0146 38.0496C72.6593 38.0819 72.2019 38.0422 71.6257 37.8948L71.13 39.8324ZM73.1957 40.0413C73.962 39.9717 74.6217 39.6228 75.1552 39.0684L73.7141 37.6816C73.4749 37.9302 73.2482 38.0283 73.0146 38.0496L73.1957 40.0413ZM75.1418 39.0821C75.6859 38.538 76.1072 37.74 76.4528 36.7995L74.5756 36.1096C74.2697 36.9418 73.9713 37.4241 73.7276 37.6679L75.1418 39.0821ZM76.4531 36.7988L76.9531 35.4352L75.0753 34.7467L74.5753 36.1103L76.4531 36.7988ZM76.9527 34.7457L70.4982 17.2002L68.6212 17.8907L75.0757 35.4362L76.9527 34.7457ZM69.5597 18.5455H72.4688V16.5455H69.5597V18.5455ZM71.5238 17.8728L76.342 31.7819L78.2318 31.1272L73.4137 17.2181L71.5238 17.8728ZM77.2869 32.4545H77.4688V30.4545H77.2869V32.4545ZM78.4137 31.7819L83.2318 17.8728L81.342 17.2181L76.5238 31.1272L78.4137 31.7819ZM82.2869 18.5455H85.196V16.5455H82.2869V18.5455ZM84.2583 17.1981L76.8492 37.1981L78.7247 37.8928L86.1337 17.8928L84.2583 17.1981ZM76.849 37.1987C76.5457 38.019 76.184 38.6591 75.7801 39.1439L77.3165 40.4243C77.8974 39.7272 78.3615 38.875 78.7249 37.8923L76.849 37.1987ZM75.7761 39.1487C75.374 39.6375 74.9246 39.9796 74.4282 40.1989L75.2365 42.0283C76.0432 41.6719 76.7378 41.1277 77.3205 40.4195L75.7761 39.1487ZM74.4243 40.2007C73.9265 40.4232 73.3414 40.5455 72.6506 40.5455V42.5455C73.5809 42.5455 74.4504 42.3798 75.2405 42.0266L74.4243 40.2007Z" fill="#673AB7" mask="url(#path-1-outside-1_2_11)"/>
<rect width="48" height="47" rx="6" fill="#673AB7"/>
<g filter="url(#filter0_d_2_11)">
<mask id="path-4-outside-2_2_11" maskUnits="userSpaceOnUse" x="26" y="10" width="16" height="27" fill="black">
<rect fill="white" x="26" y="10" width="16" height="27"/>
<path d="M37.7273 11.7273H40.5455V28.3636C40.5455 29.8485 40.2727 31.1098 39.7273 32.1477C39.1818 33.1856 38.4129 33.9735 37.4205 34.5114C36.428 35.0492 35.2576 35.3182 33.9091 35.3182C32.6364 35.3182 31.5038 35.0871 30.5114 34.625C29.5189 34.1553 28.7386 33.4886 28.1705 32.625C27.6023 31.7614 27.3182 30.7348 27.3182 29.5455H30.0909C30.0909 30.2045 30.2538 30.7803 30.5795 31.2727C30.9129 31.7576 31.3674 32.1364 31.9432 32.4091C32.5189 32.6818 33.1742 32.8182 33.9091 32.8182C34.7197 32.8182 35.4091 32.6477 35.9773 32.3068C36.5455 31.9659 36.9773 31.4659 37.2727 30.8068C37.5758 30.1402 37.7273 29.3258 37.7273 28.3636V11.7273Z"/>
</mask>
<path d="M37.7273 11.7273H40.5455V28.3636C40.5455 29.8485 40.2727 31.1098 39.7273 32.1477C39.1818 33.1856 38.4129 33.9735 37.4205 34.5114C36.428 35.0492 35.2576 35.3182 33.9091 35.3182C32.6364 35.3182 31.5038 35.0871 30.5114 34.625C29.5189 34.1553 28.7386 33.4886 28.1705 32.625C27.6023 31.7614 27.3182 30.7348 27.3182 29.5455H30.0909C30.0909 30.2045 30.2538 30.7803 30.5795 31.2727C30.9129 31.7576 31.3674 32.1364 31.9432 32.4091C32.5189 32.6818 33.1742 32.8182 33.9091 32.8182C34.7197 32.8182 35.4091 32.6477 35.9773 32.3068C36.5455 31.9659 36.9773 31.4659 37.2727 30.8068C37.5758 30.1402 37.7273 29.3258 37.7273 28.3636V11.7273Z" fill="white"/>
<path d="M37.7273 11.7273V10.7273H36.7273V11.7273H37.7273ZM40.5455 11.7273H41.5455V10.7273H40.5455V11.7273ZM39.7273 32.1477L40.6125 32.6129L39.7273 32.1477ZM37.4205 34.5114L37.897 35.3905L37.4205 34.5114ZM30.5114 34.625L30.0836 35.5289L30.0892 35.5315L30.5114 34.625ZM28.1705 32.625L27.335 33.1746H27.335L28.1705 32.625ZM27.3182 29.5455V28.5455H26.3182V29.5455H27.3182ZM30.0909 29.5455H31.0909V28.5455H30.0909V29.5455ZM30.5795 31.2727L29.7455 31.8245L29.7504 31.8319L29.7555 31.8393L30.5795 31.2727ZM31.9432 32.4091L32.3713 31.5054L31.9432 32.4091ZM35.9773 32.3068L35.4628 31.4493L35.9773 32.3068ZM37.2727 30.8068L36.3623 30.393L36.3602 30.3978L37.2727 30.8068ZM37.7273 12.7273H40.5455V10.7273H37.7273V12.7273ZM39.5455 11.7273V28.3636H41.5455V11.7273H39.5455ZM39.5455 28.3636C39.5455 29.7286 39.2947 30.8213 38.8421 31.6825L40.6125 32.6129C41.2508 31.3984 41.5455 29.9684 41.5455 28.3636H39.5455ZM38.8421 31.6825C38.385 32.5521 37.7551 33.1925 36.944 33.6322L37.897 35.3905C39.0706 34.7544 39.9786 33.8191 40.6125 32.6129L38.8421 31.6825ZM36.944 33.6322C36.1238 34.0767 35.1235 34.3182 33.9091 34.3182V36.3182C35.3917 36.3182 36.7322 36.0218 37.897 35.3905L36.944 33.6322ZM33.9091 34.3182C32.7586 34.3182 31.7739 34.1098 30.9335 33.7185L30.0892 35.5315C31.2337 36.0645 32.5141 36.3182 33.9091 36.3182V34.3182ZM30.9392 33.7211C30.1018 33.3248 29.4669 32.7762 29.0059 32.0754L27.335 33.1746C28.0104 34.2011 28.9361 34.9858 30.0836 35.5289L30.9392 33.7211ZM29.0059 32.0754C28.5605 31.3985 28.3182 30.5697 28.3182 29.5455H26.3182C26.3182 30.9 26.644 32.1243 27.335 33.1746L29.0059 32.0754ZM27.3182 30.5455H30.0909V28.5455H27.3182V30.5455ZM29.0909 29.5455C29.0909 30.3771 29.2992 31.1497 29.7455 31.8245L31.4136 30.721C31.2084 30.4109 31.0909 30.032 31.0909 29.5455H29.0909ZM29.7555 31.8393C30.197 32.4814 30.7935 32.971 31.5151 33.3128L32.3713 31.5054C31.9413 31.3017 31.6288 31.0338 31.4036 30.7062L29.7555 31.8393ZM31.5151 33.3128C32.2437 33.658 33.0489 33.8182 33.9091 33.8182V31.8182C33.2996 31.8182 32.7941 31.7057 32.3713 31.5054L31.5151 33.3128ZM33.9091 33.8182C34.8605 33.8182 35.7368 33.6173 36.4918 33.1643L35.4628 31.4493C35.0814 31.6782 34.5789 31.8182 33.9091 31.8182V33.8182ZM36.4918 33.1643C37.2512 32.7086 37.814 32.044 38.1852 31.2159L36.3602 30.3978C36.1405 30.8878 35.8397 31.2232 35.4628 31.4493L36.4918 33.1643ZM38.1831 31.2206C38.5606 30.39 38.7273 29.4257 38.7273 28.3636H36.7273C36.7273 29.2258 36.5909 29.8903 36.3624 30.393L38.1831 31.2206ZM38.7273 28.3636V11.7273H36.7273V28.3636H38.7273Z" fill="white" mask="url(#path-4-outside-2_2_11)"/>
</g>
<defs>
<filter id="filter0_d_2_11" x="23.3182" y="11.7273" width="21.2273" height="31.5909" filterUnits="userSpaceOnUse" color-interpolation-filters="sRGB">
<feFlood flood-opacity="0" result="BackgroundImageFix"/>
<feColorMatrix in="SourceAlpha" type="matrix" values="0 0 0 0 0 0 0 0 0 0 0 0 0 0 0 0 0 0 127 0" result="hardAlpha"/>
<feOffset dy="4"/>
<feGaussianBlur stdDeviation="2"/>
<feComposite in2="hardAlpha" operator="out"/>
<feColorMatrix type="matrix" values="0 0 0 0 0 0 0 0 0 0 0 0 0 0 0 0 0 0 0.25 0"/>
<feBlend mode="normal" in2="BackgroundImageFix" result="effect1_dropShadow_2_11"/>
<feBlend mode="normal" in="SourceGraphic" in2="effect1_dropShadow_2_11" result="shape"/>
</filter>
</defs>
</svg>
